<?xml version="1.0" encoding="UTF-8" standalone="no"?>
<svg
   width="16px"
   height="16px"
   viewBox="0 0 16 16"
   version="1.1"
   id="svg13"
   sodipodi:docname="movies-symbolic.svg"
   xml:space="preserve"
   inkscape:version="1.2.2 (b0a8486541, 2022-12-01)"
   xmlns:inkscape="http://www.inkscape.org/namespaces/inkscape"
   xmlns:sodipodi="http://sodipodi.sourceforge.net/DTD/sodipodi-0.dtd"
   xmlns="http://www.w3.org/2000/svg"
   xmlns:svg="http://www.w3.org/2000/svg"><defs
     id="defs17" /><sodipodi:namedview
     id="namedview15"
     pagecolor="#ffffff"
     bordercolor="#000000"
     borderopacity="0.25"
     inkscape:showpageshadow="2"
     inkscape:pageopacity="0.0"
     inkscape:pagecheckerboard="0"
     inkscape:deskcolor="#d1d1d1"
     showgrid="false"
     inkscape:zoom="17.434602"
     inkscape:cx="0.94639387"
     inkscape:cy="6.6534357"
     inkscape:window-width="1920"
     inkscape:window-height="1016"
     inkscape:window-x="0"
     inkscape:window-y="0"
     inkscape:window-maximized="1"
     inkscape:current-layer="svg13" /><path
     id="path300"
     d="M 2 0 C 2 0 1.03125 1.000003 1.03125 2 L 1.03125 14 C 1.03125 15.007809 0.03125 16 0.03125 16 L 1.03125 16 C 1.03125 16 1.4531259 15.574216 1.75 15 L 2.75 15 C 2.4531259 15.574216 2.03125 16 2.03125 16 L 3.03125 16 C 3.03125 16 4.03125 14.980466 4.03125 14 L 4.03125 12 L 4.03125 11 L 4.03125 6 L 4.03125 5 L 4.03125 2 C 4.03125 1.000003 5 0 5 0 L 2 0 z M 2.3125 1 L 3.3125 1 C 3.1601566 1.3046871 3.03125 1.6523449 3.03125 2 L 2.03125 2 C 2.03125 1.6523449 2.1601566 1.3046871 2.3125 1 z M 2.03125 3 L 3.03125 3 L 3.03125 4 L 2.03125 4 L 2.03125 3 z M 2.03125 5 L 3.03125 5 L 3.03125 6 L 2.03125 6 L 2.03125 5 z M 2.03125 7 L 3.03125 7 L 3.03125 8 L 2.03125 8 L 2.03125 7 z M 2.03125 9 L 3.03125 9 L 3.03125 10 L 2.03125 10 L 2.03125 9 z M 2.03125 11 L 3.03125 11 L 3.03125 12 L 2.03125 12 L 2.03125 11 z M 2.03125 13 L 3.03125 13 L 3.03125 14 L 2.03125 14 L 2.03125 13 z " /><path
     id="path300-3"
     d="m 13,2e-7 c 0,0 -0.96875,1.000003 -0.96875,2 V 14 c 0,1.007809 -1,2 -1,2 h 1 c 0,0 0.421876,-0.425784 0.71875,-1 h 1 c -0.296874,0.574216 -0.71875,1 -0.71875,1 h 1 c 0,0 1,-1.019534 1,-2 v -2 -1 -4.9999998 -1 -3 c 0,-0.999997 0.96875,-2 0.96875,-2 z m 0.3125,1 h 1 c -0.152343,0.3046871 -0.28125,0.6523449 -0.28125,1 h -1 c 0,-0.3476551 0.128907,-0.6953129 0.28125,-1 z m -0.28125,2 h 1 v 1 h -1 z m 0,2 h 1 v 1 h -1 z m 0,2 h 1 v 1 h -1 z m 0,2 h 1 V 10 h -1 z m 0,1.9999998 h 1 v 1 h -1 z m 0,2 h 1 v 1 h -1 z" /><path
     style="fill:#e01b24"
     d="m 4.03125,5 v 1 h 8 V 5 Z"
     id="path765" /><path
     style="fill:#000000"
     d="m 4.03125,5 v 1 h 8 V 5 Z"
     id="path800" /><path
     style="fill:#000000"
     d="m 4.03125,11 v 1 h 8 v -1 z"
     id="path815" /></svg>
