<?xml version="1.0" encoding="UTF-8" standalone="no"?>
<svg
   width="16px"
   height="16px"
   viewBox="0 0 16 16"
   version="1.1"
   id="svg5487"
   sodipodi:docname="series-symbolic.svg"
   xml:space="preserve"
   inkscape:version="1.2.2 (b0a8486541, 2022-12-01)"
   xmlns:inkscape="http://www.inkscape.org/namespaces/inkscape"
   xmlns:sodipodi="http://sodipodi.sourceforge.net/DTD/sodipodi-0.dtd"
   xmlns="http://www.w3.org/2000/svg"
   xmlns:svg="http://www.w3.org/2000/svg"><defs
     id="defs5491"><inkscape:path-effect
       effect="offset"
       id="path-effect5788"
       is_visible="true"
       lpeversion="1.2"
       linejoin_type="miter"
       unit="mm"
       offset="0"
       miter_limit="4"
       attempt_force_join="false"
       update_on_knot_move="true" /><inkscape:path-effect
       effect="offset"
       id="path-effect5786"
       is_visible="true"
       lpeversion="1.2"
       linejoin_type="miter"
       unit="mm"
       offset="0"
       miter_limit="4"
       attempt_force_join="false"
       update_on_knot_move="true" /></defs><sodipodi:namedview
     id="namedview5489"
     pagecolor="#ffffff"
     bordercolor="#000000"
     borderopacity="0.25"
     inkscape:showpageshadow="2"
     inkscape:pageopacity="0.0"
     inkscape:pagecheckerboard="0"
     inkscape:deskcolor="#d1d1d1"
     showgrid="false"
     inkscape:zoom="69.738406"
     inkscape:cx="8.7828219"
     inkscape:cy="2.6097528"
     inkscape:window-width="1920"
     inkscape:window-height="1016"
     inkscape:window-x="0"
     inkscape:window-y="0"
     inkscape:window-maximized="1"
     inkscape:current-layer="g5635" /><path
     id="path5610"
     style="display:inline;stroke-width:0.947839"
     d="m 3,4.3208103 c -1.6601544,0 -3,1.2037156 -3,2.6951961 V 13.304804 C 0,14.796285 1.3398456,16 3,16 h 10 c 1.660154,0 3,-1.203715 3,-2.695196 V 7.0160064 C 16,5.5245259 14.660154,4.3208103 13,4.3208103 Z m 0,1.7967974 h 10 c 0.554687,0 1,0.4000683 1,0.8983987 v 6.2887976 c 0,0.498331 -0.445313,0.898399 -1,0.898399 H 3 c -0.5546874,0 -1,-0.400068 -1,-0.898399 V 7.0160064 C 2,6.517676 2.4453126,6.1176077 3,6.1176077 Z" /><g
     fill="#2e3436"
     id="g5635"
     transform="translate(17.361217,-5.1204056)"><path
       style="font-variation-settings:'wght' 300;fill:#000000"
       id="rect5703"
       width="4.6933937"
       height="1.7620192"
       x="-0.50035864"
       y="11.601899"
       transform="rotate(56.788677)"
       inkscape:path-effect="#path-effect5788"
       d="M 0.25332808,11.601899 H 3.4393483 c 0.4175425,0 0.7536868,0.336144 0.7536868,0.753687 v 0.254646 c 0,0.417542 -0.3361443,0.753686 -0.7536868,0.753686 H 0.25332808 c -0.41754244,0 -0.75368672,-0.336144 -0.75368672,-0.753686 v -0.254646 c 0,-0.417543 0.33614428,-0.753687 0.75368672,-0.753687 z"
       sodipodi:type="rect"
       ry="0.75368673" /><path
       style="font-variation-settings:'wght' 300;fill:#000000"
       id="rect5703-2"
       width="6.3465204"
       height="1.8778772"
       x="6.5188255"
       y="-0.053006005"
       transform="matrix(-0.67196616,0.74058185,0.74058185,0.67196616,0,0)"
       inkscape:path-effect="#path-effect5786"
       d="m 7.3576539,-0.053006 h 4.6688641 c 0.46471,0 0.838828,0.37411746 0.838828,0.83882838 v 0.20022047 c 0,0.46471095 -0.374118,0.83882835 -0.838828,0.83882835 H 7.3576539 c -0.4647109,0 -0.8388284,-0.3741174 -0.8388284,-0.83882835 V 0.78582238 c 0,-0.46471092 0.3741175,-0.83882838 0.8388284,-0.83882838 z"
       sodipodi:type="rect"
       ry="0.83882838" /></g></svg>
