<?xml version="1.0" encoding="UTF-8" standalone="no"?>
<svg
   width="16px"
   height="16px"
   viewBox="0 0 16 16"
   version="1.1"
   id="svg5"
   sodipodi:docname="watchlist-symbolic.svg"
   xml:space="preserve"
   inkscape:version="1.3 (0e150ed6c4, 2023-07-21)"
   xmlns:inkscape="http://www.inkscape.org/namespaces/inkscape"
   xmlns:sodipodi="http://sodipodi.sourceforge.net/DTD/sodipodi-0.dtd"
   xmlns="http://www.w3.org/2000/svg"
   xmlns:svg="http://www.w3.org/2000/svg"><defs
     id="defs5" /><sodipodi:namedview
     id="namedview5"
     pagecolor="#ffffff"
     bordercolor="#000000"
     borderopacity="0.25"
     inkscape:showpageshadow="2"
     inkscape:pageopacity="0.0"
     inkscape:pagecheckerboard="0"
     inkscape:deskcolor="#d1d1d1"
     inkscape:zoom="37.034718"
     inkscape:cx="5.2518289"
     inkscape:cy="7.5604735"
     inkscape:window-width="1920"
     inkscape:window-height="1016"
     inkscape:window-x="0"
     inkscape:window-y="0"
     inkscape:window-maximized="1"
     inkscape:current-layer="g5" /><g
     id="g5"
     transform="translate(-0.00954654)"><path
       id="path1"
       d="M 4.9997809 0 C 3.909938 0 2.9997809 0.91015709 2.9997809 2 L 2.9997809 11 C 2.9997809 12.089843 3.909938 13 4.9997809 13 L 13.999781 13 C 15.089624 13 15.999781 12.089843 15.999781 11 L 15.999781 2 C 15.999781 0.91015709 15.089624 0 13.999781 0 L 4.9997809 0 z M 6.7282965 2.8164062 L 7.4665778 2.8164062 C 7.5963821 2.8164062 7.723221 2.8468579 7.8357184 2.9101562 L 13.00564 5.8554688 C 13.236404 5.9820648 13.351343 6.2410532 13.351343 6.5 C 13.351343 6.7589461 13.236404 7.0179352 13.00564 7.1445312 L 7.8357184 10.089844 C 7.723221 10.153144 7.5963822 10.183594 7.4665778 10.183594 L 6.7282965 10.183594 L 6.7282965 2.8164062 z " /><path
       d="M 2,3 C 0.910156,3 0,3.910156 0,5 v 9 c 0,1.089844 0.910156,2 2,2 h 9 c 1.089844,0 2,-0.910156 2,-2 H 2 Z m 0,0"
       id="path2" /></g></svg>
