<?xml version="1.0" encoding="UTF-8"?>
<svg height="16px" viewBox="0 0 16 16" width="16px" xmlns="http://www.w3.org/2000/svg">
    <path d="m 14.972656 3.90625 c -0.285156 -0.109375 -0.609375 -0.175781 -0.957031 -0.175781 l -2.476563 -0.003907 c -0.011718 0.339844 -0.292968 0.609376 -0.632812 0.613282 c -0.347656 0.003906 -0.632812 -0.269532 -0.640625 -0.617188 l -8.257813 -0.019531 c -1.113281 -0.003906 -2.007812 0.628906 -2.007812 1.421875 l -0.00390625 1.425781 c 1.10546825 0.003907 2.00000025 0.644531 2.00000025 1.433594 c -0.003906 0.789063 -0.898438 1.425781 -2.0078128 1.425781 v 1.425782 c -0.0039062 0.792968 0.8867188 1.429687 1.9960938 1.433593 l 8.261719 0.019531 c 0 -0.011718 0 -0.019531 0 -0.03125 c -0.011719 -0.347656 0.261718 -0.636718 0.613281 -0.652343 c 0.347656 -0.011719 0.640625 0.261719 0.65625 0.609375 v 0.03125 v 0.046875 l 2.476563 0.003906 c 1.113281 0.003906 2.007812 -0.628906 2.007812 -1.421875 l 0.003906 -1.425781 c -1.105468 -0.003907 -2 -0.644531 -2 -1.433594 c 0.003906 -0.789063 0.898438 -1.425781 2.007813 -1.425781 v -1.425782 c 0.003906 -0.542968 -0.417969 -1.015624 -1.039063 -1.257812 z m -3.808594 0.941406 c 0.214844 0.101563 0.359376 0.3125 0.367188 0.550782 v 0.03125 c 0 0.347656 -0.28125 0.628906 -0.628906 0.632812 s -0.632813 -0.273438 -0.640625 -0.621094 c -0.007813 -0.347656 0.265625 -0.640625 0.613281 -0.648437 c 0.097656 -0.003907 0.199219 0.015625 0.289062 0.054687 z m -0.003906 1.707032 c 0.214844 0.097656 0.355469 0.308593 0.367188 0.546874 v 0.03125 c 0 0.347657 -0.28125 0.628907 -0.628906 0.636719 c -0.347657 0 -0.632813 -0.277343 -0.640626 -0.625 c -0.007812 -0.347656 0.265626 -0.636719 0.613282 -0.648437 c 0.097656 -0.003906 0.199218 0.015625 0.289062 0.058594 z m -0.003906 1.703124 c 0.214844 0.097657 0.355469 0.308594 0.367188 0.546876 v 0.03125 c 0 0.347656 -0.28125 0.632812 -0.628907 0.636718 c -0.347656 0.003906 -0.632812 -0.273437 -0.640625 -0.625 c -0.007812 -0.347656 0.265625 -0.636718 0.613282 -0.648437 c 0.097656 -0.003907 0.195312 0.015625 0.289062 0.058593 z m -0.003906 1.703126 c 0.214844 0.101562 0.355468 0.3125 0.367187 0.550781 v 0.03125 c 0 0.347656 -0.28125 0.628906 -0.628906 0.632812 c -0.347656 0.003907 -0.636719 -0.273437 -0.644531 -0.621093 c -0.003906 -0.351563 0.269531 -0.640626 0.617187 -0.652344 c 0.097657 -0.003906 0.199219 0.019531 0.289063 0.058594 z m 0 0"/>
</svg>
