<?xml version="1.0" encoding="UTF-8"?>
<svg height="128px" viewBox="0 0 128 128" width="128px" xmlns="http://www.w3.org/2000/svg" xmlns:xlink="http://www.w3.org/1999/xlink">
    <linearGradient id="a" gradientTransform="matrix(0.196428 0 0 0.368057 2.597015 285.347168)" gradientUnits="userSpaceOnUse" x1="88.595886" x2="536.595886" y1="-449.394012" y2="-449.394012">
        <stop offset="0" stop-color="#a51d2d"/>
        <stop offset="0.0500001" stop-color="#e01b24"/>
        <stop offset="0.099807" stop-color="#c01c28"/>
        <stop offset="0.900001" stop-color="#c01c28"/>
        <stop offset="0.950001" stop-color="#e01b24"/>
        <stop offset="1" stop-color="#a51d2d"/>
    </linearGradient>
    <linearGradient id="b" gradientUnits="userSpaceOnUse" x1="16.257476" x2="111.742553" y1="88.753897" y2="88.753897">
        <stop offset="0" stop-color="#241f31"/>
        <stop offset="0.0500001" stop-color="#5e5c64"/>
        <stop offset="0.099807" stop-color="#3d3846"/>
        <stop offset="0.900001" stop-color="#3d3846"/>
        <stop offset="0.950001" stop-color="#5e5c64"/>
        <stop offset="1" stop-color="#241f31"/>
    </linearGradient>
    <linearGradient id="c" gradientUnits="userSpaceOnUse">
        <stop offset="0" stop-color="#813d9c"/>
        <stop offset="0.0357143" stop-color="#c061cb"/>
        <stop offset="0.0713653" stop-color="#9141ac"/>
        <stop offset="0.928571" stop-color="#9141ac"/>
        <stop offset="0.964286" stop-color="#c061cb"/>
        <stop offset="1" stop-color="#813d9c"/>
    </linearGradient>
    <linearGradient id="d" gradientTransform="matrix(1 0 0 -1 375.168878 133.472084)" x1="-357.056976" x2="-346.84494" xlink:href="#c" y1="-93.317177" y2="-93.317177"/>
    <linearGradient id="e" gradientTransform="matrix(1 0 0 -0.508693 375.168878 92.691444)" x1="-357.056976" x2="-346.84494" xlink:href="#c" y1="-93.317177" y2="-93.317177"/>
    <linearGradient id="f" gradientUnits="userSpaceOnUse">
        <stop offset="0" stop-color="#c0bfbc"/>
        <stop offset="0.0357143" stop-color="#f6f5f4"/>
        <stop offset="0.0713653" stop-color="#deddda"/>
        <stop offset="0.928571" stop-color="#deddda"/>
        <stop offset="0.964286" stop-color="#f6f5f4"/>
        <stop offset="1" stop-color="#c0bfbc"/>
    </linearGradient>
    <linearGradient id="g" gradientTransform="matrix(1 0 0 -1 385.372858 133.450638)" x1="-357.056976" x2="-346.84494" xlink:href="#f" y1="-93.317177" y2="-93.317177"/>
    <linearGradient id="h" gradientTransform="matrix(1 0 0 -0.507859 385.372858 92.600819)" x1="-357.056976" x2="-346.84494" xlink:href="#f" y1="-93.317177" y2="-93.317177"/>
    <linearGradient id="i" gradientTransform="matrix(1 0 0 -1 395.551714 133.472084)" x1="-357.056976" x2="-346.84494" xlink:href="#c" y1="-93.317177" y2="-93.317177"/>
    <linearGradient id="j" gradientTransform="matrix(1 0 0 -0.508693 395.551714 92.691444)" x1="-357.056976" x2="-346.84494" xlink:href="#c" y1="-93.317177" y2="-93.317177"/>
    <linearGradient id="k" gradientTransform="matrix(1 0 0 -1 405.755693 133.450638)" x1="-357.056976" x2="-346.84494" xlink:href="#f" y1="-93.317177" y2="-93.317177"/>
    <linearGradient id="l" gradientTransform="matrix(1 0 0 -0.507859 405.755693 92.600819)" x1="-357.056976" x2="-346.84494" xlink:href="#f" y1="-93.317177" y2="-93.317177"/>
    <linearGradient id="m" gradientTransform="matrix(1 0 0 -1 415.966606 133.472084)" x1="-357.056976" x2="-346.84494" xlink:href="#c" y1="-93.317177" y2="-93.317177"/>
    <linearGradient id="n" gradientTransform="matrix(1 0 0 -0.508693 415.966606 92.691444)" x1="-357.056976" x2="-346.84494" xlink:href="#c" y1="-93.317177" y2="-93.317177"/>
    <linearGradient id="o" gradientTransform="matrix(1 0 0 -1 426.170586 133.450638)" x1="-357.056976" x2="-346.84494" xlink:href="#f" y1="-93.317177" y2="-93.317177"/>
    <linearGradient id="p" gradientTransform="matrix(1 0 0 -0.507859 426.170586 92.600819)" x1="-357.056976" x2="-346.84494" xlink:href="#f" y1="-93.317177" y2="-93.317177"/>
    <linearGradient id="q" gradientTransform="matrix(1 0 0 -1 436.349442 133.472084)" x1="-357.056976" x2="-346.84494" xlink:href="#c" y1="-93.317177" y2="-93.317177"/>
    <linearGradient id="r" gradientTransform="matrix(1 0 0 -0.508693 436.349442 92.691444)" x1="-357.056976" x2="-346.84494" xlink:href="#c" y1="-93.317177" y2="-93.317177"/>
    <linearGradient id="s" gradientTransform="matrix(1 0 0 -1 446.553421 133.450638)" x1="-357.056976" x2="-346.84494" xlink:href="#f" y1="-93.317177" y2="-93.317177"/>
    <linearGradient id="t" gradientTransform="matrix(1 0 0 -0.507859 446.553421 92.600819)" x1="-357.056976" x2="-346.84494" xlink:href="#f" y1="-93.317177" y2="-93.317177"/>
    <linearGradient id="u" gradientTransform="matrix(1 0 0 -1 456.731934 133.472084)" x1="-357.056976" x2="-346.84494" xlink:href="#c" y1="-93.317177" y2="-93.317177"/>
    <linearGradient id="v" gradientTransform="matrix(1 0 0 -0.508693 456.731934 92.691444)" x1="-357.056976" x2="-346.84494" xlink:href="#c" y1="-93.317177" y2="-93.317177"/>
    <path d="m 18.140625 35.457031 h 91.75 l -4.203125 -19.726562 c -0.984375 -4.617188 -5.058594 -7.914063 -9.777344 -7.914063 h -63.820312 c -4.714844 0 -8.789063 3.300782 -9.769532 7.914063 z m 0 0" fill="#63452c"/>
    <path d="m 32.089844 10.304688 h 63.820312 c 3.539063 0 6.601563 2.480468 7.339844 5.945312 l 3.5625 16.714844 h -85.597656 l 3.542968 -16.71875 c 0.734376 -3.460938 3.792969 -5.941406 7.332032 -5.941406 z m 0 0" fill="#865e3c"/>
    <path d="m 108 100.675781 c -0.164062 0.007813 -0.328125 0.027344 -0.496094 0.027344 h -87.503906 v 10.636719 c 0 4.765625 3.566406 8.605468 8 8.605468 h 72 c 4.433594 0 8 -3.839843 8 -8.605468 z m 0 0" fill="url(#a)"/>
    <path d="m 28 41.714844 h 72 c 4.417969 0 8 2.320312 8 5.175781 v 59.523437 c 0 2.859376 -3.582031 5.175782 -8 5.175782 h -72 c -4.417969 0 -8 -2.316406 -8 -5.175782 v -59.523437 c 0 -2.855469 3.582031 -5.175781 8 -5.175781 z m 0 0" fill="#ed333b"/>
    <path d="m 18.332031 83.828125 h 91.335938 c 1.144531 0 2.074219 0.929687 2.074219 2.078125 v 5.695312 c 0 1.148438 -0.929688 2.078126 -2.074219 2.078126 h -91.335938 c -1.144531 0 -2.074219 -0.929688 -2.074219 -2.078126 v -5.695312 c 0 -1.148438 0.929688 -2.078125 2.074219 -2.078125 z m 0 0" fill="url(#b)"/>
    <path d="m 18.332031 80.167969 h 91.335938 c 1.144531 0 2.074219 0.929687 2.074219 2.078125 v 5.695312 c 0 1.148438 -0.929688 2.078125 -2.074219 2.078125 h -91.335938 c -1.144531 0 -2.074219 -0.929687 -2.074219 -2.078125 v -5.695312 c 0 -1.148438 0.929688 -2.078125 2.074219 -2.078125 z m 0 0" fill="#5e5c64"/>
    <path d="m 19.9375 80.167969 v -41.671875 h 88.125 v 41.671875 z m 0 0" fill="#c1daff" fill-opacity="0.964706"/>
    <path d="m 74.351562 15.5625 c -0.421874 -0.164062 -0.902343 -0.257812 -1.417968 -0.261719 l -3.667969 -0.015625 c -0.019531 0.507813 -0.433594 0.90625 -0.9375 0.910156 c -0.511719 0.003907 -0.9375 -0.402343 -0.949219 -0.917968 l -12.230468 -0.050782 c -1.644532 -0.007812 -2.972657 0.929688 -2.976563 2.101563 l -0.007813 2.117187 c 1.636719 0.003907 2.960938 0.957032 2.953126 2.125 c -0.003907 1.167969 -1.332032 2.109376 -2.972657 2.101563 l -0.007812 2.117187 c -0.003907 1.171876 1.3125 2.117188 2.957031 2.125 l 12.238281 0.054688 c -0.003906 -0.015625 -0.003906 -0.03125 -0.003906 -0.046875 c -0.011719 -0.515625 0.394531 -0.945313 0.910156 -0.960937 c 0.515625 -0.019532 0.949219 0.382812 0.972657 0.898437 v 0.046875 c 0 0.023438 0 0.046875 -0.003907 0.066406 l 3.671875 0.019532 c 1.644532 0.003906 2.972656 -0.929688 2.976563 -2.105469 l 0.007812 -2.113281 c -1.636719 -0.007813 -2.960937 -0.957032 -2.953125 -2.125 c 0.003906 -1.171876 1.332032 -2.113282 2.972656 -2.105469 l 0.007813 -2.113281 c 0.003906 -0.808594 -0.617187 -1.507813 -1.539063 -1.867188 z m -5.644531 1.386719 c 0.320313 0.148437 0.53125 0.460937 0.546875 0.8125 v 0.046875 c -0.003906 0.515625 -0.417968 0.933594 -0.9375 0.9375 c -0.515625 0.003906 -0.9375 -0.40625 -0.949218 -0.921875 c -0.011719 -0.515625 0.398437 -0.945313 0.914062 -0.960938 c 0.148438 -0.003906 0.292969 0.023438 0.425781 0.085938 z m -0.011719 2.523437 c 0.320313 0.148438 0.53125 0.460938 0.546876 0.8125 v 0.046875 c -0.003907 0.515625 -0.417969 0.933594 -0.933594 0.941407 c -0.515625 0.003906 -0.9375 -0.410157 -0.949219 -0.925782 s 0.394531 -0.941406 0.910156 -0.960937 c 0.148438 -0.003907 0.292969 0.023437 0.425781 0.085937 z m -0.007812 2.523438 c 0.316406 0.148437 0.527344 0.460937 0.542969 0.8125 l 0.003906 0.050781 c -0.003906 0.515625 -0.421875 0.933594 -0.9375 0.9375 s -0.9375 -0.410156 -0.949219 -0.925781 c -0.011718 -0.515625 0.394532 -0.941406 0.910156 -0.960938 c 0.148438 -0.003906 0.292969 0.023438 0.429688 0.085938 z m -0.011719 2.527344 c 0.320313 0.148437 0.53125 0.460937 0.546875 0.8125 v 0.046874 c -0.003906 0.515626 -0.421875 0.933594 -0.9375 0.9375 c -0.515625 0.003907 -0.9375 -0.410156 -0.949218 -0.925781 c -0.007813 -0.515625 0.398437 -0.941406 0.914062 -0.957031 c 0.144531 -0.007812 0.292969 0.023438 0.425781 0.085938 z m 0 0" fill="#deddda"/>
    <path d="m 55.964844 71.566406 c 0 -2.867187 1.53125 -5.523437 4.019531 -6.957031 c 2.484375 -1.433594 5.546875 -1.433594 8.03125 0 c 2.488281 1.433594 4.019531 4.089844 4.019531 6.957031 z m 0 0" fill="#62a0ea" fill-opacity="0.4"/>
    <path d="m 72.035156 80.167969 h -16.070312 v -8.601563 h 16.070312 z m 0 0" fill="#62a0ea" fill-opacity="0.4"/>
    <path d="m 26.539062 46.589844 c -2.113281 -1.808594 -5.285156 -1.59375 -7.132812 0.480468 c -1.851562 2.078126 -1.699219 5.253907 0.34375 7.144532 c 2.039062 1.890625 5.21875 1.796875 7.148438 -0.207032 c 1.925781 -2.003906 1.898437 -5.183593 -0.070313 -7.152343" fill="url(#d)"/>
    <path d="m 18.121094 50.46875 h 10.1875 v -13.089844 h -10.1875 z m 0 0" fill="url(#e)"/>
    <path d="m 26.535156 43.734375 c -2.113281 -1.808594 -5.285156 -1.59375 -7.132812 0.480469 c -1.851563 2.078125 -1.699219 5.253906 0.34375 7.144531 c 2.042968 1.890625 5.21875 1.796875 7.148437 -0.207031 c 1.929688 -2.003906 1.898438 -5.183594 -0.070312 -7.152344" fill="#c061cb"/>
    <path d="m 18.140625 47.613281 h 10.1875 v -10.234375 h -10.1875 z m 0 0" fill="#c061cb"/>
    <path d="m 36.742188 46.566406 c -2.113282 -1.808594 -5.285157 -1.59375 -7.132813 0.484375 c -1.851563 2.078125 -1.695313 5.253907 0.34375 7.144531 c 2.042969 1.886719 5.21875 1.796876 7.148437 -0.207031 c 1.929688 -2.007812 1.898438 -5.1875 -0.070312 -7.152343" fill="url(#g)"/>
    <path d="m 28.324219 50.445312 h 10.1875 v -13.066406 h -10.1875 z m 0 0" fill="url(#h)"/>
    <path d="m 36.746094 43.710938 c -2.113282 -1.808594 -5.285156 -1.59375 -7.132813 0.484374 c -1.851562 2.078126 -1.699219 5.253907 0.34375 7.140626 c 2.042969 1.890624 5.21875 1.800781 7.148438 -0.207032 c 1.929687 -2.003906 1.898437 -5.183594 -0.070313 -7.148437" fill="#f6f5f4"/>
    <path d="m 28.328125 47.589844 h 10.1875 v -10.210938 h -10.1875 z m 0 0" fill="#f6f5f4"/>
    <path d="m 46.921875 46.589844 c -2.113281 -1.808594 -5.285156 -1.59375 -7.132813 0.480468 c -1.851562 2.078126 -1.699218 5.253907 0.34375 7.144532 c 2.039063 1.890625 5.21875 1.796875 7.148438 -0.207032 c 1.925781 -2.003906 1.898438 -5.183593 -0.070312 -7.152343" fill="url(#i)"/>
    <path d="m 38.503906 50.46875 h 10.1875 v -13.089844 h -10.1875 z m 0 0" fill="url(#j)"/>
    <path d="m 46.917969 43.734375 c -2.113281 -1.808594 -5.285157 -1.59375 -7.132813 0.480469 c -1.851562 2.078125 -1.699218 5.253906 0.34375 7.144531 c 2.042969 1.890625 5.21875 1.796875 7.148438 -0.207031 c 1.929687 -2.003906 1.898437 -5.183594 -0.070313 -7.152344" fill="#c061cb"/>
    <path d="m 38.523438 47.613281 h 10.1875 v -10.234375 h -10.1875 z m 0 0" fill="#c061cb"/>
    <path d="m 57.125 46.566406 c -2.113281 -1.808594 -5.285156 -1.59375 -7.132812 0.484375 c -1.851563 2.078125 -1.695313 5.253907 0.34375 7.144531 c 2.042968 1.886719 5.21875 1.796876 7.148437 -0.207031 c 1.929687 -2.007812 1.898437 -5.1875 -0.070313 -7.152343" fill="url(#k)"/>
    <path d="m 48.707031 50.445312 h 10.1875 v -13.066406 h -10.1875 z m 0 0" fill="url(#l)"/>
    <path d="m 57.128906 43.710938 c -2.113281 -1.808594 -5.285156 -1.59375 -7.132812 0.484374 c -1.851563 2.078126 -1.699219 5.253907 0.34375 7.140626 c 2.042968 1.890624 5.21875 1.800781 7.148437 -0.207032 c 1.929688 -2.003906 1.898438 -5.183594 -0.070312 -7.148437" fill="#f6f5f4"/>
    <path d="m 48.710938 47.589844 h 10.1875 v -10.210938 h -10.1875 z m 0 0" fill="#f6f5f4"/>
    <path d="m 67.335938 46.589844 c -2.113282 -1.808594 -5.285157 -1.59375 -7.132813 0.480468 c -1.851563 2.078126 -1.695313 5.253907 0.34375 7.144532 c 2.042969 1.890625 5.21875 1.796875 7.148437 -0.207032 c 1.929688 -2.003906 1.898438 -5.183593 -0.070312 -7.152343" fill="url(#m)"/>
    <path d="m 58.917969 50.46875 h 10.1875 v -13.089844 h -10.1875 z m 0 0" fill="url(#n)"/>
    <path d="m 67.332031 43.734375 c -2.109375 -1.808594 -5.285156 -1.59375 -7.132812 0.480469 c -1.851563 2.078125 -1.695313 5.253906 0.34375 7.144531 c 2.042969 1.890625 5.21875 1.796875 7.148437 -0.207031 c 1.929688 -2.003906 1.898438 -5.183594 -0.070312 -7.152344" fill="#c061cb"/>
    <path d="m 58.9375 47.613281 h 10.1875 v -10.234375 h -10.1875 z m 0 0" fill="#c061cb"/>
    <path d="m 77.539062 46.566406 c -2.109374 -1.808594 -5.28125 -1.59375 -7.132812 0.484375 s -1.695312 5.253907 0.34375 7.144531 c 2.042969 1.886719 5.21875 1.796876 7.148438 -0.207031 c 1.929687 -2.007812 1.898437 -5.1875 -0.066407 -7.152343" fill="url(#o)"/>
    <path d="m 69.121094 50.445312 h 10.1875 v -13.066406 h -10.1875 z m 0 0" fill="url(#p)"/>
    <path d="m 77.542969 43.710938 c -2.113281 -1.808594 -5.285157 -1.59375 -7.132813 0.484374 c -1.851562 2.078126 -1.695312 5.253907 0.34375 7.140626 c 2.042969 1.890624 5.21875 1.800781 7.148438 -0.207032 c 1.929687 -2.003906 1.898437 -5.183594 -0.070313 -7.148437" fill="#f6f5f4"/>
    <path d="m 69.125 47.589844 h 10.1875 v -10.210938 h -10.1875 z m 0 0" fill="#f6f5f4"/>
    <path d="m 87.71875 46.589844 c -2.113281 -1.808594 -5.285156 -1.59375 -7.132812 0.480468 c -1.851563 2.078126 -1.695313 5.253907 0.34375 7.144532 c 2.042968 1.890625 5.21875 1.796875 7.148437 -0.207032 c 1.929687 -2.003906 1.898437 -5.183593 -0.070313 -7.152343" fill="url(#q)"/>
    <path d="m 79.300781 50.46875 h 10.1875 v -13.089844 h -10.1875 z m 0 0" fill="url(#r)"/>
    <path d="m 87.714844 43.734375 c -2.109375 -1.808594 -5.285156 -1.59375 -7.132813 0.480469 c -1.851562 2.078125 -1.695312 5.253906 0.34375 7.144531 c 2.042969 1.890625 5.21875 1.796875 7.148438 -0.207031 c 1.929687 -2.003906 1.898437 -5.183594 -0.070313 -7.152344" fill="#c061cb"/>
    <path d="m 79.320312 47.613281 h 10.1875 v -10.234375 h -10.1875 z m 0 0" fill="#c061cb"/>
    <path d="m 97.921875 46.566406 c -2.109375 -1.808594 -5.28125 -1.59375 -7.132813 0.484375 c -1.851562 2.078125 -1.695312 5.253907 0.34375 7.144531 c 2.042969 1.886719 5.21875 1.796876 7.148438 -0.207031 c 1.929688 -2.007812 1.898438 -5.1875 -0.066406 -7.152343" fill="url(#s)"/>
    <path d="m 89.503906 50.445312 h 10.1875 v -13.066406 h -10.1875 z m 0 0" fill="url(#t)"/>
    <path d="m 97.925781 43.710938 c -2.113281 -1.808594 -5.285156 -1.59375 -7.132812 0.484374 c -1.851563 2.078126 -1.695313 5.253907 0.34375 7.140626 c 2.042969 1.890624 5.21875 1.800781 7.148437 -0.207032 c 1.929688 -2.003906 1.898438 -5.183594 -0.070312 -7.148437" fill="#f6f5f4"/>
    <path d="m 89.507812 47.589844 h 10.1875 v -10.210938 h -10.1875 z m 0 0" fill="#f6f5f4"/>
    <path d="m 108.101562 46.589844 c -2.113281 -1.808594 -5.285156 -1.59375 -7.132812 0.480468 c -1.851562 2.078126 -1.699219 5.253907 0.34375 7.144532 s 5.21875 1.796875 7.148438 -0.207032 c 1.929687 -2.003906 1.898437 -5.183593 -0.070313 -7.152343" fill="url(#u)"/>
    <path d="m 99.683594 50.46875 h 10.1875 v -13.089844 h -10.1875 z m 0 0" fill="url(#v)"/>
    <path d="m 108.097656 43.734375 c -2.113281 -1.808594 -5.285156 -1.59375 -7.132812 0.480469 c -1.851563 2.078125 -1.695313 5.253906 0.34375 7.144531 c 2.042968 1.890625 5.21875 1.796875 7.148437 -0.207031 c 1.929688 -2.003906 1.898438 -5.183594 -0.070312 -7.152344" fill="#c061cb"/>
    <path d="m 99.703125 47.613281 h 10.1875 v -10.234375 h -10.1875 z m 0 0" fill="#c061cb"/>
    <path d="m 18.140625 35.378906 h 91.75 v 3.195313 h -91.75 z m 0 0" fill="#2d1f13"/>
</svg>
